# xmcd CD database file
#
# Track frame offsets:
#	150
#	14555
#	21379
#	26037
#	35183
#	43338
#	52268
#	58345
#	65794
#	72656
#	87130
#	106476
#	114790
#	127812
#	141043
#	148925
#	165279
#	170947
#	177178
#	192545
#	208029
#	219507
#	231192
#	243826
#	260677
#	269419
#	271826
#	281642
#	286542
#	294628
#	308338
#
# Disc length: 4269 seconds
#
# Revision: 0
# Processed by: cddbd v1.5.2PL0 Copyright (c) Steve Scherf et al.
# Submitted via: CDex 1.51
#
DISCID=ed10ab1f
DTITLE=Grossman, Stefan - Complete Country Blues Guitar Book [CD1]
DYEAR=1992
DGENRE=Blues
TTITLE0=Shake That Thing
TTITLE1=Nobody's Dirty Business
TTITLE2=It Won't Be Long
TTITLE3=Fare Thee Well Titanic
TTITLE4=You Got The Pocketbook, I Got The Key
TTITLE5=Ragtime Mama Blues
TTITLE6=Salty Dog
TTITLE7=Blues Ain't Dry
TTITLE8=Old Country Rock
TTITLE9=Take A Whiff On Me
TTITLE10=A Tribute To Lonnie Johnson
TTITLE11=Crow Jane
TTITLE12=One Kind Favor
TTITLE13=Easy Rider Blues
TTITLE14=Ragged And Dirty
TTITLE15=Return To Little Rock
TTITLE16=Monday Morning Blues
TTITLE17=Spoonful
TTITLE18=Wheeping Willow
TTITLE19=Mississippi Blues
TTITLE20=Just A Closer Walk With Thee
TTITLE21=Working On The New Railroad
TTITLE22=Juicy Lucy
TTITLE23=Easy Stree
TTITLE24=Vestapol
TTITLE25=Kassie James
TTITLE26=John Henry
TTITLE27=Sitting On Top Of The World
TTITLE28=Police Dog Blues
TTITLE29=New Pony Blues
TTITLE30=If You Haven't Any Hay Then Get On Down The Road
EXTD=YEAR: 1992
EXTT0=
EXTT1=
EXTT2=
EXTT3=
EXTT4=
EXTT5=
EXTT6=
EXTT7=
EXTT8=
EXTT9=
EXTT10=
EXTT11=
EXTT12=
EXTT13=
EXTT14=
EXTT15=
EXTT16=
EXTT17=
EXTT18=
EXTT19=
EXTT20=
EXTT21=
EXTT22=
EXTT23=
EXTT24=
EXTT25=
EXTT26=
EXTT27=
EXTT28=
EXTT29=
EXTT30=
PLAYORDER=
